<?xml version="1.0" standalone="no"?>
<!DOCTYPE svg PUBLIC "-//W3C//DTD SVG 20010904//EN"
 "http://www.w3.org/TR/2001/REC-SVG-20010904/DTD/svg10.dtd">
<svg version="1.0" xmlns="http://www.w3.org/2000/svg"
 width="2000.000000pt" height="1860.000000pt" viewBox="0 0 2000.000000 1860.000000"
 preserveAspectRatio="xMidYMid meet">

<g transform="translate(0.000000,1860.000000) scale(0.100000,-0.100000)"
fill="#000000" stroke="none">
<path d="M6429 18116 c-25 -6 -58 -22 -75 -33 -16 -12 -1152 -1146 -2526
-2520 -1731 -1733 -2503 -2511 -2517 -2540 l-21 -42 0 -3566 c0 -3303 1 -3569
16 -3603 11 -25 871 -891 2554 -2575 l2537 -2539 59 -14 c50 -12 598 -14 3606
-14 l3548 0 52 24 c46 21 399 371 2562 2534 1381 1381 2516 2522 2523 2536 7
14 18 60 24 103 6 52 9 1252 7 3593 -3 3434 -3 3516 -22 3555 -13 27 -805 827
-2530 2555 -1381 1383 -2516 2518 -2522 2522 -6 4 -51 14 -99 23 -78 13 -491
15 -3609 14 -2753 0 -3531 -3 -3567 -13z m9424 -2881 l2397 -2395 0 -3428 0
-3427 -197 -197 c-155 -155 -201 -195 -213 -188 -22 14 -60 12 -66 -3 -3 -8 0
-26 6 -42 11 -29 1 -39 -2172 -2212 l-2183 -2183 -3393 0 -3392 0 -2415 2415
-2415 2415 0 3422 0 3423 2397 2397 2398 2398 3425 0 3425 -1 2398 -2394z"/>
<path d="M8844 16773 c40 -260 104 -688 131 -883 19 -135 40 -265 46 -290 8
-36 8 -53 -4 -85 -14 -39 -15 -40 -62 -40 l-49 0 -12 50 c-53 222 -219 1016
-240 1152 -3 23 -14 49 -24 58 -16 14 -19 12 -43 -23 -29 -45 -110 -116 -182
-160 -42 -26 -47 -32 -30 -37 87 -29 117 -73 134 -196 6 -52 37 -202 67 -333
30 -132 51 -243 47 -246 -11 -10 -143 -53 -148 -49 -2 2 -20 63 -40 134 -20
72 -46 158 -57 193 l-20 63 -101 -98 c-56 -54 -103 -100 -105 -104 -1 -3 12
-12 30 -21 32 -15 49 -49 96 -185 2 -7 -27 -27 -67 -47 l-70 -36 -14 28 c-21
40 -97 267 -97 288 0 10 -10 28 -21 40 l-21 23 -60 -77 c-32 -42 -70 -94 -84
-114 l-26 -37 51 -67 c28 -37 51 -70 51 -73 0 -29 -102 -131 -130 -131 -4 0
-27 46 -50 103 -23 56 -60 143 -82 194 l-41 92 -30 -42 c-16 -23 -61 -77 -100
-120 -38 -43 -66 -82 -61 -86 5 -4 29 -23 54 -43 33 -26 48 -47 58 -80 7 -25
38 -95 68 -157 30 -62 54 -122 54 -132 0 -11 11 -36 24 -57 32 -49 63 -142 71
-217 l7 -61 -73 -49 -74 -50 42 -3 c34 -2 56 5 115 38 105 59 124 83 133 167
6 67 -6 196 -25 264 -14 48 -14 47 33 59 23 6 89 27 147 46 273 91 591 173
598 155 1 -4 28 -47 60 -97 l58 -89 110 -41 c100 -37 109 -42 112 -68 3 -27 5
-26 60 35 141 155 187 230 179 293 -3 22 -10 82 -16 131 -11 91 -59 449 -86
647 -18 130 -19 223 -2 304 l13 62 -40 12 c-45 14 -159 69 -218 106 -21 13
-40 24 -44 24 -3 0 -3 -17 0 -37z"/>
<path d="M11566 16680 c-50 -56 -50 -95 3 -132 63 -44 82 -49 127 -28 96 46
111 99 46 163 -34 33 -44 37 -89 37 -46 0 -54 -3 -87 -40z"/>
<path d="M11051 16572 c-14 -21 -34 -32 -73 -40 -29 -7 -86 -27 -127 -45 l-75
-32 50 -5 49 -5 3 -88 3 -88 -53 -24 c-29 -14 -63 -25 -74 -25 -28 0 -148 -94
-199 -156 -70 -84 -85 -110 -85 -148 l0 -37 -77 3 -76 3 -24 70 c-51 153 -60
168 -137 233 -97 82 -135 91 -381 99 -178 5 -192 7 -227 29 -21 13 -39 24 -42
24 -2 0 -6 -14 -10 -30 -9 -49 -70 -171 -109 -223 -21 -26 -37 -50 -37 -53 0
-6 83 1 270 22 235 26 349 17 403 -34 47 -43 90 -111 75 -117 -50 -17 -160
-25 -335 -25 -174 0 -218 -3 -294 -21 l-89 -21 0 -82 c0 -44 -3 -91 -6 -103
-6 -22 -4 -23 64 -23 39 0 124 8 189 17 93 14 186 18 439 18 381 0 357 7 368
-113 13 -139 46 -230 105 -289 24 -24 48 -34 123 -50 l93 -20 46 23 c32 16 63
45 103 97 51 67 58 82 67 143 17 129 4 118 127 111 59 -3 141 -14 182 -25 41
-11 101 -25 133 -32 l57 -11 0 -88 c0 -102 8 -118 124 -231 58 -57 66 -69 66
-102 l0 -37 80 55 c68 47 83 53 100 44 16 -9 26 -7 50 10 50 36 140 142 140
166 0 13 83 271 184 575 181 542 184 551 151 519 l-34 -33 -136 18 c-153 20
-263 16 -341 -12 -39 -15 -64 -36 -129 -110 -71 -81 -84 -101 -103 -165 -12
-40 -23 -105 -25 -145 l-3 -71 77 -21 c42 -12 85 -21 95 -21 16 0 152 -47 163
-56 5 -4 -23 -115 -59 -234 -16 -52 -35 -120 -44 -150 -15 -54 -17 -56 -66
-74 -28 -10 -54 -16 -57 -12 -16 15 -14 165 2 244 9 46 15 85 13 86 -43 28
-75 39 -169 56 -62 11 -116 23 -120 28 -4 4 -23 53 -43 109 -60 175 -99 233
-213 324 -43 34 -80 63 -82 65 -2 2 2 25 9 51 7 26 16 96 20 155 5 73 13 116
24 133 l16 25 -44 0 c-38 0 -48 -4 -65 -28z m979 -447 l0 -85 -59 0 c-54 0
-62 3 -85 31 -14 17 -26 34 -26 37 1 8 150 101 163 102 4 0 7 -38 7 -85z
m-1188 -121 c3 -3 -4 -38 -16 -77 -22 -71 -22 -72 -59 -75 -30 -3 -41 2 -62
25 -13 15 -25 31 -25 35 0 5 16 26 36 47 26 30 45 41 72 44 20 2 40 4 43 5 3
1 8 -1 11 -4z m291 -88 c70 -95 70 -96 -1 -96 -33 0 -68 -3 -78 -7 -15 -5 -16
-2 -10 33 17 92 28 134 35 134 4 0 28 -29 54 -64z m-343 -346 c0 -48 -26 -98
-62 -120 -60 -36 -66 -31 -70 65 l-3 85 68 0 67 0 0 -30z"/>
<path d="M7714 16533 c-11 -2 -37 -21 -57 -41 l-37 -38 21 -63 c20 -58 25 -64
65 -82 43 -18 45 -18 88 0 40 18 45 24 65 82 l21 63 -42 43 c-42 43 -61 49
-124 36z"/>
<path d="M7752 16212 c-48 -42 -49 -45 -26 -103 19 -46 83 -99 120 -99 33 0
92 55 103 96 15 55 -3 100 -49 124 -60 30 -98 26 -148 -18z"/>
<path d="M12799 15848 c-23 -46 -56 -126 -74 -178 -54 -159 -59 -140 53 -185
245 -97 678 -335 879 -484 l132 -97 -41 -62 c-22 -34 -44 -62 -49 -62 -4 0
-117 65 -251 145 -259 155 -662 365 -818 426 -95 37 -95 37 -113 85 -10 27
-21 52 -25 56 -4 4 -43 -24 -87 -63 -44 -38 -83 -69 -86 -69 -3 0 -37 -14 -74
-31 l-68 -31 124 -54 c68 -30 158 -69 199 -85 123 -50 717 -354 828 -424 57
-35 132 -87 167 -115 l63 -50 -24 -57 c-30 -73 -30 -130 0 -218 13 -38 26 -95
30 -125 l7 -55 68 3 c38 2 93 -1 124 -7 49 -9 63 -8 109 11 29 12 78 39 109
60 31 21 61 38 66 38 5 0 26 -17 46 -38 34 -35 36 -40 27 -72 -12 -43 -12
-122 0 -175 7 -30 25 -56 77 -105 37 -36 84 -73 105 -83 44 -21 137 -22 201
-3 l46 14 48 -52 c27 -28 77 -86 111 -129 l63 -77 28 16 c37 22 129 99 249
209 54 50 156 140 226 200 71 61 191 167 268 238 77 70 144 127 149 127 4 0
13 10 20 21 16 31 -2 39 -90 39 -69 0 -80 3 -157 45 -45 25 -84 45 -86 45 -1
0 -1 -23 1 -51 l3 -52 -143 -144 c-79 -79 -175 -168 -214 -198 -38 -29 -97
-81 -130 -114 -33 -34 -65 -61 -71 -61 -7 0 -26 17 -43 37 -52 63 -91 213 -91
349 l0 72 -71 7 c-42 4 -95 18 -127 33 -50 23 -59 24 -104 13 -79 -18 -90 -15
-146 42 -29 29 -52 56 -52 60 0 14 103 148 258 334 170 206 253 312 305 394
l36 56 -123 6 c-67 4 -141 13 -165 22 -61 21 -65 19 -41 -20 l22 -35 -124
-167 c-68 -92 -164 -220 -213 -283 -50 -63 -125 -160 -166 -215 -90 -119 -176
-215 -193 -215 -6 0 -23 12 -38 25 -38 33 -38 83 0 127 46 54 154 198 205 274
46 70 47 74 47 145 -1 83 -15 131 -56 191 -49 70 -163 146 -591 391 -292 168
-310 181 -235 171 20 -3 139 -26 264 -50 125 -24 238 -44 253 -44 34 0 73 -21
139 -75 l55 -44 43 36 c24 20 59 47 79 60 39 26 162 53 240 53 27 0 49 4 49 8
0 18 -100 52 -225 77 -71 15 -292 67 -490 117 -340 86 -645 157 -672 158 -7 0
-31 -37 -54 -82z"/>
<path d="M6255 15868 c-2 -7 -13 -47 -23 -89 -14 -55 -31 -92 -62 -134 -33
-45 -40 -59 -29 -66 77 -44 93 -65 259 -344 63 -104 133 -220 157 -258 24 -37
43 -69 43 -71 0 -2 -44 -32 -97 -67 -54 -35 -129 -85 -166 -112 -81 -57 -70
-63 -146 83 -42 79 -66 111 -147 190 -86 85 -94 90 -70 50 54 -90 118 -224
137 -285 31 -100 40 -161 47 -307 l7 -138 70 48 c39 27 201 138 360 246 160
109 294 202 299 206 14 14 -608 1060 -630 1060 -3 0 -7 -6 -9 -12z"/>
<path d="M7211 15737 c-21 -51 -28 -59 -77 -81 -105 -48 -201 -179 -223 -302
-8 -43 -8 -82 -1 -134 18 -125 31 -161 90 -242 l56 -77 54 31 c29 16 78 39
107 49 30 10 71 28 90 40 19 12 36 20 37 18 19 -21 116 -235 116 -256 0 -39
-30 -84 -86 -128 -27 -22 -53 -43 -59 -47 -15 -13 56 3 103 23 114 49 172 134
172 255 0 91 -26 178 -95 314 -29 58 -55 119 -59 135 -4 17 -34 83 -67 147
-32 64 -59 123 -59 131 0 8 -17 52 -38 98 l-38 83 -23 -57z m32 -471 c2 -7
-27 -20 -90 -40 -23 -7 -23 -6 -23 70 0 67 3 81 22 101 l23 24 33 -73 c18 -40
34 -77 35 -82z"/>
<path d="M8426 15225 l-59 -53 39 -66 c34 -58 42 -66 69 -66 16 0 39 -3 51 -6
17 -4 29 5 57 43 39 54 52 91 42 123 -7 21 -99 80 -125 79 -8 0 -42 -24 -74
-54z"/>
<path d="M5577 14672 c-20 -26 -60 -74 -88 -107 -28 -33 -65 -89 -82 -124 -26
-55 -30 -75 -31 -150 -1 -81 1 -92 37 -163 28 -57 62 -102 131 -175 l93 -98
63 59 c87 80 207 169 219 162 5 -4 39 -44 75 -90 l66 -85 0 -68 c0 -68 0 -69
-45 -113 l-46 -45 38 -7 c37 -6 40 -4 110 65 84 84 92 109 76 234 -12 94 3 73
-228 343 -78 91 -166 197 -197 236 -31 39 -78 94 -105 122 l-48 52 -38 -48z
m111 -333 c23 -20 42 -41 42 -48 0 -31 -34 -74 -73 -92 -68 -30 -71 -28 -63
49 4 37 11 84 17 105 11 42 13 42 77 -14z"/>
<path d="M4755 14507 c-102 -57 -116 -61 -189 -66 l-78 -6 148 -130 c82 -71
194 -173 249 -225 55 -53 123 -113 150 -135 28 -22 102 -90 165 -150 64 -61
136 -125 162 -143 l46 -31 63 57 63 58 -347 344 c-233 231 -347 351 -347 365
0 11 7 44 14 73 8 28 13 52 13 51 -1 0 -51 -28 -112 -62z"/>
<path d="M4342 14137 c-7 -83 -16 -167 -19 -186 l-6 -34 30 21 30 21 79 -63
c43 -34 149 -125 234 -201 85 -76 185 -161 223 -189 37 -28 67 -53 67 -57 0
-3 -18 -26 -40 -51 -37 -42 -44 -46 -102 -52 -126 -13 -204 -36 -234 -67 l-28
-29 -24 23 -25 22 6 -155 c4 -85 11 -182 16 -214 l10 -59 -53 -91 c-30 -50
-76 -122 -104 -159 l-49 -68 -7 47 c-3 26 -6 83 -6 127 0 68 -4 87 -26 125
-26 43 -27 44 -67 38 -61 -10 -136 -46 -194 -93 -29 -24 -56 -43 -59 -43 -4 0
-12 8 -19 17 -12 16 -16 15 -64 -10 -27 -15 -73 -31 -101 -34 -31 -4 -50 -11
-50 -19 0 -37 34 -165 55 -209 18 -38 25 -74 30 -150 7 -116 18 -139 80 -166
l44 -19 96 50 c83 43 155 64 155 44 0 -12 -154 -305 -164 -313 -10 -8 -350
119 -491 184 -33 15 -107 45 -163 67 -57 21 -125 49 -150 62 -26 13 -66 26
-89 30 l-42 6 34 -57 c34 -56 35 -62 35 -155 l0 -98 49 0 c68 0 192 -38 409
-126 103 -41 207 -82 232 -91 25 -9 100 -35 167 -59 68 -24 131 -44 142 -44
14 0 25 18 46 78 14 42 72 168 127 279 106 213 103 202 82 301 l-6 32 43 0 44
1 110 180 c61 100 115 182 120 184 6 1 40 7 76 13 81 12 164 52 233 111 51 44
54 50 71 125 19 86 16 130 -15 197 -11 24 -20 49 -20 55 0 6 33 52 74 103 40
50 81 107 91 125 l18 33 -38 47 c-22 25 -68 69 -104 98 -36 29 -174 148 -306
263 -132 116 -287 248 -345 294 -58 46 -112 90 -121 97 -13 12 -16 -3 -27
-139z m534 -1015 c35 -23 44 -90 16 -115 -18 -16 -83 -47 -100 -47 -12 0 -56
129 -48 138 23 23 110 39 132 24z m-726 -526 c0 -13 3 -44 6 -68 l6 -46 -64
-36 c-36 -20 -68 -36 -71 -36 -23 0 29 125 70 171 41 45 53 48 53 15z"/>
<path d="M10107 14220 c-68 -26 -77 -36 -77 -84 0 -44 20 -71 82 -109 25 -15
28 -15 67 6 41 22 41 22 41 83 0 55 -3 63 -32 91 l-33 31 -48 -18z"/>
<path d="M15694 14043 c-88 -71 -270 -220 -404 -333 -135 -113 -277 -232 -317
-264 l-72 -58 51 -76 c28 -43 52 -78 54 -80 3 -4 487 366 618 472 54 45 111
91 126 103 l27 22 62 -19 c57 -17 62 -17 56 -2 -38 91 -59 225 -46 302 5 30 8
56 7 58 -2 1 -74 -55 -162 -125z"/>
<path d="M8940 14113 c-27 -22 -30 -31 -30 -83 l0 -58 63 -20 62 -19 28 26
c25 23 28 31 25 85 l-3 60 -58 17 -58 17 -29 -25z"/>
<path d="M10695 13919 c-18 -56 -140 -215 -259 -336 -71 -73 -123 -133 -115
-134 266 -10 703 -94 938 -180 30 -11 80 -26 112 -33 l56 -14 27 57 c23 51 58
154 100 299 10 34 11 52 4 52 -6 0 -50 -9 -99 -21 l-89 -21 21 -40 c23 -46 21
-56 -29 -124 l-31 -42 -150 43 c-159 46 -283 73 -468 101 -61 10 -120 25 -132
33 -20 16 -19 18 49 116 58 85 71 114 88 183 18 78 18 82 1 82 -10 0 -21 -9
-24 -21z"/>
<path d="M10155 13846 c-93 -62 -89 -52 -93 -276 l-4 -199 -74 -17 c-41 -10
-74 -20 -74 -24 0 -10 117 -70 137 -70 10 0 42 11 69 25 45 23 52 30 67 77 9
29 21 82 26 118 12 70 13 341 3 378 -7 22 -7 22 -57 -12z"/>
<path d="M9068 13772 l-76 -77 49 -65 c40 -53 49 -73 49 -106 l0 -41 -57 -17
c-117 -34 -114 -35 -221 89 -231 267 -228 265 -279 265 -39 0 -55 -7 -102 -42
-30 -23 -72 -57 -93 -76 l-38 -34 34 -47 c94 -128 196 -277 196 -287 0 -15
-156 -104 -195 -111 -16 -3 -76 -27 -132 -54 -56 -27 -104 -49 -106 -49 -3 0
-7 69 -9 153 -4 164 -14 202 -71 255 l-25 23 5 -148 c4 -88 1 -184 -6 -238
-11 -86 -42 -230 -57 -268 -8 -21 79 20 281 133 160 90 270 145 352 175 73 28
193 92 193 103 0 4 -46 61 -101 127 -97 116 -182 235 -175 243 2 2 19 -4 37
-14 47 -24 132 -106 204 -199 35 -44 83 -99 108 -123 l44 -43 162 41 c90 22
174 40 187 40 17 0 24 6 24 19 0 49 -80 405 -99 438 -4 9 -30 -11 -83 -65z"/>
<path d="M9396 13718 l-54 -83 29 -3 c17 -2 60 2 97 8 37 7 119 16 182 20
l115 8 28 -31 c15 -17 27 -34 27 -38 0 -11 -92 -27 -190 -34 -47 -3 -128 -13
-181 -22 l-97 -16 -5 -56 c-3 -30 -4 -57 -1 -60 2 -2 48 3 102 12 56 10 149
17 222 17 69 0 149 3 178 7 75 9 86 28 89 158 l3 101 -41 40 -40 39 -121 1
c-66 1 -158 5 -204 9 l-83 7 -55 -84z"/>
<path d="M16078 13751 c-28 -4 -45 -16 -67 -46 -17 -22 -30 -47 -31 -55 0 -8
14 -36 30 -62 l30 -48 65 0 64 0 25 43 26 43 -22 67 c-24 74 -24 74 -120 58z"/>
<path d="M11764 13460 c-74 -24 -95 -46 -127 -131 -33 -87 -99 -221 -112 -225
-5 -1 -30 -5 -55 -9 -63 -8 -78 -18 -59 -41 27 -33 102 -74 136 -74 76 0 119
43 172 170 21 52 57 138 79 190 53 127 56 140 40 139 -7 0 -40 -9 -74 -19z"/>
<path d="M12575 13473 c-16 -1 -58 -6 -93 -9 l-63 -6 7 -45 6 -44 -163 -245
-164 -244 -58 0 c-57 0 -62 2 -118 51 l-59 51 1 71 c1 70 2 73 38 104 l38 33
49 -15 c81 -24 85 -22 147 62 30 43 54 79 53 80 -6 7 -173 -30 -222 -48 -110
-42 -171 -141 -161 -265 10 -126 70 -202 193 -244 72 -25 98 -25 154 1 84 39
102 34 236 -64 65 -48 191 -145 279 -216 l160 -128 37 42 c20 23 58 68 85 101
26 32 75 91 109 130 95 110 95 111 43 158 -71 63 -199 156 -225 162 -51 13
-99 -15 -164 -97 l-39 -49 21 -60 c18 -55 26 -64 82 -102 33 -23 63 -43 65
-45 3 -2 -7 -15 -21 -30 l-26 -26 -94 80 c-52 44 -160 131 -241 193 -81 62
-147 117 -147 122 0 4 74 127 165 272 91 145 165 267 165 270 0 6 -20 6 -75
-1z m372 -735 c12 -29 19 -55 17 -57 -4 -4 -144 78 -144 84 0 6 61 23 86 24
17 1 26 -10 41 -51z"/>
<path d="M16206 13441 c-48 -76 -49 -79 -27 -110 11 -15 41 -45 66 -65 l46
-38 56 34 c30 18 58 39 60 46 3 7 2 37 -2 67 -6 51 -9 57 -43 74 -20 10 -59
21 -85 23 -47 6 -49 5 -71 -31z"/>
<path d="M15410 13296 c-67 -19 -146 -62 -217 -119 -86 -69 -86 -85 5 -215 95
-135 231 -356 346 -559 l98 -172 44 -7 c24 -3 44 -9 44 -11 0 -3 -9 -21 -21
-39 -24 -40 -24 -40 44 -189 71 -157 117 -270 212 -515 117 -302 107 -281 125
-274 48 22 216 77 285 95 44 11 125 36 181 54 56 19 110 35 122 35 34 0 33 13
-5 60 -19 25 -54 83 -78 130 -48 95 -70 122 -135 166 -74 49 -119 64 -243 78
-130 15 -128 13 -174 101 -28 54 -85 216 -79 223 3 2 62 -21 132 -52 l128 -56
43 42 43 42 0 80 c0 73 2 82 27 108 27 28 36 62 59 213 l6 41 -100 37 c-55 20
-117 37 -136 37 -32 0 -37 3 -42 29 -5 24 -15 33 -63 51 -73 28 -151 36 -191
20 l-30 -12 0 -118 c0 -105 -2 -120 -21 -141 -11 -13 -22 -19 -25 -14 -2 6
-42 77 -89 159 l-84 149 52 36 c57 40 253 164 357 226 85 51 190 126 190 137
0 4 -16 8 -36 8 -26 0 -69 18 -152 65 -63 36 -116 65 -118 65 -2 0 -4 -19 -4
-42 0 -35 -5 -46 -32 -68 l-32 -27 -80 63 c-52 42 -93 66 -116 69 -19 4 -54
10 -77 16 -54 12 -107 10 -163 -5z m173 -238 c37 -5 67 -11 67 -13 0 -11 -104
-64 -131 -67 -31 -3 -36 0 -62 50 l-29 52 44 -5 c24 -4 73 -11 111 -17z m502
-663 c54 -95 54 -97 9 -81 -89 32 -94 36 -94 81 0 24 3 57 7 75 l6 33 19 -24
c10 -13 34 -51 53 -84z m224 -818 c25 -12 46 -27 48 -33 4 -13 -103 -77 -119
-72 -10 4 -58 112 -58 131 0 15 80 -1 129 -26z"/>
<path d="M10892 13243 c-6 -27 -13 -68 -17 -93 l-7 -46 73 -17 c71 -17 73 -17
92 1 12 13 22 42 27 83 8 63 8 64 -23 92 -26 22 -41 27 -83 27 l-52 0 -10 -47z"/>
<path d="M12966 13151 l-58 -59 33 -55 c29 -47 39 -56 69 -60 31 -4 39 0 67
31 57 64 57 81 6 146 -24 31 -48 56 -52 56 -3 0 -33 -27 -65 -59z"/>
<path d="M8581 13093 c-26 -96 -29 -122 -16 -127 35 -13 106 -16 143 -6 l42
11 0 58 0 59 -49 21 c-27 11 -63 21 -80 21 -27 0 -31 -5 -40 -37z"/>
<path d="M7419 13090 c-76 -39 -114 -79 -128 -135 -20 -80 1 -125 108 -237 52
-55 59 -41 -66 -128 -39 -27 -75 -50 -80 -50 -5 0 -54 49 -108 109 -97 107
-353 357 -359 350 -2 -2 -11 -37 -21 -78 l-18 -74 29 -21 c46 -33 144 -125
204 -191 67 -73 180 -211 180 -219 0 -3 -56 -6 -124 -6 l-124 0 -28 -32 c-59
-71 -78 -161 -49 -244 5 -17 -5 -34 -53 -85 l-59 -63 -79 57 c-43 31 -161 120
-262 197 -101 77 -185 140 -188 140 -2 0 -4 -44 -4 -98 l0 -98 66 -28 c37 -16
101 -54 143 -84 42 -31 141 -100 221 -155 l145 -99 60 68 c137 156 123 145
195 151 115 10 156 55 188 209 l17 81 120 109 c157 143 212 187 320 263 89 63
155 119 155 132 0 13 -80 39 -119 39 -27 0 -49 -8 -69 -25 -26 -22 -39 -25
-109 -25 -77 0 -80 1 -92 28 -7 15 -17 51 -22 81 -7 47 -6 58 12 82 11 16 23
29 27 29 4 0 23 -25 42 -55 19 -30 38 -55 41 -55 3 0 26 30 51 68 l45 67 -57
28 c-70 33 -81 33 -151 -3z m-365 -839 c33 -37 -4 -82 -54 -66 -31 10 -42 38
-24 63 19 27 55 28 78 3z"/>
<path d="M13168 13047 c-58 -48 -80 -114 -58 -171 9 -25 13 -26 88 -26 l79 0
16 67 c12 51 13 70 5 81 -11 13 -93 72 -100 72 -2 0 -15 -10 -30 -23z"/>
<path d="M8394 13030 c-12 -5 -33 -29 -47 -55 -25 -44 -26 -47 -10 -80 10 -21
30 -39 54 -51 l39 -17 51 34 c50 34 51 34 46 81 -6 69 -29 98 -75 97 -20 0
-47 -4 -58 -9z"/>
<path d="M9722 12799 c-91 -12 -158 -27 -183 -39 l-39 -20 0 -73 c0 -39 9
-139 20 -222 18 -132 26 -206 46 -412 l5 -52 56 -7 c60 -7 235 8 321 27 l52
12 0 404 0 403 -67 -1 c-38 -1 -132 -10 -211 -20z"/>
<path d="M10060 12454 c1 -325 6 -444 22 -459 15 -15 169 -26 286 -20 l132 7
0 28 c0 16 7 60 15 99 8 39 24 149 35 244 11 96 25 189 30 208 6 19 10 76 10
126 l0 93 -53 0 c-29 0 -104 6 -167 14 -63 8 -159 18 -212 22 l-98 7 0 -369z"/>
<path d="M6443 12648 c-56 -90 -123 -220 -123 -240 0 -19 67 49 127 130 53 72
54 74 51 133 l-3 60 -52 -83z"/>
<path d="M9355 12714 c-99 -51 -185 -110 -185 -125 0 -10 16 -87 35 -171 20
-84 49 -211 66 -283 16 -71 39 -158 50 -192 l20 -62 52 20 c28 11 64 28 80 37
l29 17 -6 105 c-3 58 -17 173 -30 255 -14 83 -27 177 -30 210 -7 69 -37 205
-46 205 -3 -1 -18 -8 -35 -16z"/>
<path d="M10675 12688 c-24 -53 -95 -470 -111 -650 l-6 -78 83 -40 c91 -44
125 -50 133 -22 23 78 100 466 131 658 5 29 1 35 -44 68 -53 37 -153 96 -164
96 -4 0 -14 -15 -22 -32z"/>
<path d="M6538 12646 c-16 -12 -28 -28 -28 -37 0 -8 -16 -47 -35 -88 -22 -46
-35 -87 -35 -114 l0 -40 25 23 c55 51 111 191 103 254 l-3 24 -27 -22z"/>
<path d="M13065 12409 c-88 -45 -165 -97 -165 -111 0 -6 36 -57 81 -115 55
-73 77 -109 70 -116 -6 -6 -32 -23 -58 -38 l-47 -28 -41 65 -41 65 -21 -23
c-12 -13 -24 -39 -27 -58 -6 -34 -4 -36 78 -100 47 -36 92 -66 99 -68 17 -3
302 216 366 282 l44 44 -24 34 c-55 79 -197 209 -226 208 -4 0 -44 -19 -88
-41z m103 -135 c30 -21 31 -74 2 -74 -12 0 -32 11 -45 25 -32 31 -33 65 -2 65
12 0 33 -7 45 -16z"/>
<path d="M9650 11887 c-30 -11 -56 -21 -57 -22 -1 -1 2 -28 7 -61 5 -32 16
-140 24 -239 9 -99 21 -208 27 -242 l11 -63 169 0 169 0 0 325 0 325 -147 -1
c-123 -1 -157 -5 -203 -22z"/>
<path d="M10088 11873 c-22 -37 -23 -45 -26 -304 l-3 -266 64 -41 c67 -44 80
-47 186 -35 79 8 89 21 102 145 5 51 19 143 30 203 22 115 28 234 16 298 l-8
37 -169 0 -168 0 -24 -37z"/>
<path d="M9405 11850 c-22 -17 -44 -38 -49 -47 -14 -25 -1 -219 28 -428 15
-104 30 -197 34 -207 6 -15 13 -14 68 8 88 36 107 56 101 108 -3 22 -13 118
-21 211 -9 94 -22 217 -29 275 l-12 105 -40 2 c-31 2 -49 -4 -80 -27z"/>
<path d="M10552 11853 c-16 -30 -42 -159 -72 -358 -16 -104 -32 -206 -36 -226
-6 -36 -5 -37 50 -69 122 -69 179 -49 190 68 4 37 21 161 37 275 l30 208 -20
33 c-29 47 -50 62 -103 75 -61 15 -66 14 -76 -6z"/>
<path d="M3685 11572 c-107 -37 -245 -143 -245 -188 0 -28 -62 -220 -87 -268
-26 -50 -56 -87 -90 -110 l-32 -22 64 -46 c35 -26 91 -82 125 -125 34 -43 66
-82 70 -87 11 -11 43 96 81 274 35 162 66 237 134 323 44 56 46 57 95 57 33 0
50 -4 50 -12 0 -7 -34 -147 -75 -311 -41 -163 -76 -316 -77 -338 l-3 -42 54
-18 c29 -10 75 -21 101 -25 l46 -6 23 76 c13 42 45 166 71 274 27 108 65 243
85 300 19 56 38 128 41 160 l6 57 -38 22 c-22 12 -79 33 -129 47 -105 31 -197
33 -270 8z"/>
<path d="M17072 11330 c-23 -36 -37 -50 -54 -50 -13 0 -63 -12 -113 -26 -49
-14 -155 -43 -235 -65 -80 -21 -185 -50 -235 -65 -190 -55 -330 -97 -333 -100
-2 -1 8 -46 22 -99 30 -111 99 -494 122 -670 8 -66 19 -136 24 -155 6 -19 10
-78 10 -130 0 -71 5 -105 19 -136 l19 -41 58 8 c33 4 113 13 179 19 146 13
198 35 274 113 88 90 87 87 72 229 -26 243 -28 277 -20 331 4 30 10 63 13 73
4 15 -5 24 -47 42 -29 12 -97 51 -152 86 -55 35 -101 63 -102 62 -8 -7 21
-223 38 -286 21 -79 37 -300 25 -361 -5 -26 -16 -41 -51 -63 -25 -15 -47 -27
-49 -25 -2 2 -14 24 -28 49 -21 36 -27 64 -31 140 -4 52 -24 185 -47 295 -22
110 -43 245 -46 300 l-7 100 169 42 c93 23 185 45 204 48 89 16 496 118 531
133 l40 17 -61 44 c-34 25 -84 74 -112 110 -29 36 -55 70 -58 74 -4 4 -21 -15
-38 -43z"/>
<path d="M9780 11194 c-14 -2 -49 -9 -78 -15 l-54 -11 7 -76 c12 -147 35 -338
52 -429 l16 -93 139 0 138 0 0 270 c0 209 -3 278 -14 304 -8 19 -18 36 -22 39
-13 7 -154 16 -184 11z"/>
<path d="M10098 11050 c-2 -82 -2 -217 0 -300 l3 -150 118 0 118 0 17 143 c27
238 29 262 22 339 l-7 75 -83 6 c-45 4 -104 14 -132 22 -27 8 -50 15 -51 15
-1 0 -3 -67 -5 -150z"/>
<path d="M9453 11098 c-29 -32 -30 -35 -23 -93 5 -33 9 -123 10 -200 1 -142
27 -321 46 -319 48 3 106 30 132 63 l30 37 -19 190 c-11 104 -24 222 -29 262
-6 40 -10 78 -10 83 0 5 -24 9 -53 9 -47 0 -57 -4 -84 -32z"/>
<path d="M10425 10949 c-23 -234 -25 -366 -5 -379 12 -7 169 -40 193 -40 4 0
7 48 7 108 0 59 5 148 10 197 25 236 26 208 -11 248 -31 33 -40 37 -105 43
l-70 6 -19 -183z"/>
<path d="M3275 10545 c-5 -1 -46 -13 -90 -25 -60 -17 -89 -31 -117 -57 l-37
-36 62 -45 c33 -24 83 -65 109 -90 l49 -45 39 38 39 38 78 -6 c83 -6 138 -24
164 -54 73 -82 76 -233 8 -316 -38 -46 -104 -67 -212 -67 -98 0 -95 -2 -292
190 -236 230 -277 250 -431 211 -49 -12 -94 -27 -100 -32 -7 -5 -20 -39 -30
-75 -17 -63 -17 -65 2 -79 28 -21 95 -52 131 -59 29 -7 34 -4 62 35 33 44 41
102 21 140 -10 17 -7 19 29 19 44 0 44 -1 250 -242 96 -113 187 -190 280 -235
49 -24 68 -28 146 -28 83 0 96 3 165 37 41 20 98 57 127 82 51 46 51 46 68
142 20 111 16 232 -10 307 -35 99 -176 216 -293 243 -50 12 -189 18 -217 9z"/>
<path d="M9722 8861 l3 -1648 43 -61 42 -60 0 -107 0 -106 -77 3 -78 3 -3
1798 c-1 1224 -5 1797 -12 1797 -6 0 -47 -14 -90 -31 l-80 -31 2 -1616 3
-1617 52 -110 c28 -60 54 -122 57 -137 3 -16 8 -39 11 -52 4 -21 -6 -31 -83
-80 -48 -31 -100 -67 -115 -79 l-28 -24 158 -6 c154 -7 433 6 456 20 6 4 176
9 377 13 l365 5 -97 47 -98 47 0 89 c0 103 18 172 60 230 l30 42 0 592 c0 477
-3 616 -16 713 -13 103 -15 253 -12 1033 l3 912 -80 34 c-80 33 -80 33 -90 12
-7 -14 -11 -645 -13 -1813 l-2 -1793 -65 0 -65 0 0 98 c0 90 2 100 28 137 l27
40 3 1090 c2 777 -1 1110 -9 1160 -7 42 -13 272 -16 581 l-5 511 -51 7 c-29 3
-75 6 -103 6 l-51 0 -8 -487 c-4 -269 -4 -1014 0 -1658 l6 -1170 30 -48 c27
-46 29 -54 29 -158 l0 -109 -110 0 -110 0 0 104 c0 84 3 106 17 117 9 8 29 32
45 53 l28 39 0 666 c0 560 -2 676 -15 724 -13 50 -15 194 -15 992 l0 935 -140
0 -141 0 3 -1649z"/>
<path d="M15885 10276 c-20 -30 -39 -71 -42 -92 -5 -39 -4 -39 59 -76 l63 -37
51 50 c74 74 82 91 55 126 -30 38 -99 83 -126 83 -16 0 -34 -16 -60 -54z"/>
<path d="M16020 9334 c-36 -7 -70 -21 -76 -29 -18 -25 -37 -169 -29 -222 4
-26 18 -69 32 -95 l26 -48 75 0 c41 0 149 -7 241 -16 102 -10 208 -14 274 -11
l109 6 107 104 c59 57 122 112 141 122 51 27 279 27 368 1 56 -17 63 -22 58
-40 -3 -12 -6 -30 -6 -42 0 -20 -6 -21 -162 -27 -147 -6 -231 -16 -245 -30 -2
-3 4 -38 14 -79 l19 -73 99 -6 c55 -4 124 -12 154 -18 75 -15 177 -14 210 3
39 20 90 81 114 135 28 63 21 186 -15 256 -42 80 -61 95 -121 95 -29 0 -116 8
-194 17 -123 15 -154 15 -220 4 -43 -7 -99 -15 -125 -18 -43 -4 -52 -10 -100
-66 -30 -34 -66 -79 -81 -99 -22 -30 -37 -39 -81 -48 -84 -17 -367 -9 -446 14
-36 10 -67 20 -69 22 -2 2 7 12 20 23 22 19 39 20 222 21 l197 0 0 80 0 80
-222 -1 c-151 0 -244 -5 -288 -15z"/>
<path d="M3525 9249 c-71 -4 -173 -12 -225 -18 -52 -6 -240 -11 -417 -11
l-323 0 0 -90 0 -90 184 0 c109 0 196 4 213 11 37 14 213 25 213 13 0 -19
-185 -123 -292 -165 -29 -11 -104 -43 -165 -71 l-113 -51 0 -98 c0 -55 4 -99
9 -99 24 0 202 82 426 196 138 70 268 130 290 135 66 13 232 -8 483 -62 208
-44 422 -73 422 -57 0 3 -9 34 -20 69 -30 95 -43 107 -125 119 -39 5 -144 22
-235 38 -164 28 -165 28 -168 55 l-3 27 254 0 254 0 -5 73 c-2 39 -5 72 -6 73
-7 6 -552 9 -651 3z"/>
<path d="M15932 8753 c-35 -7 -55 -45 -47 -93 4 -22 12 -43 18 -47 7 -4 46
-11 87 -14 68 -6 427 -55 575 -79 64 -10 587 -86 695 -101 36 -4 102 -8 147
-9 l82 0 6 33 c18 112 35 230 35 252 0 21 -7 27 -57 41 -32 9 -73 17 -92 18
-32 1 -35 -2 -56 -59 l-23 -60 -134 1 c-73 1 -182 9 -243 18 -101 15 -465 55
-645 71 -41 4 -118 13 -170 21 -94 14 -134 15 -178 7z"/>
<path d="M4160 8710 c-39 -10 -200 -32 -430 -60 -85 -10 -200 -26 -255 -34
-55 -8 -161 -22 -235 -31 -74 -9 -166 -22 -205 -30 -38 -7 -122 -16 -185 -20
-63 -3 -144 -11 -179 -17 l-63 -10 6 -37 c3 -20 9 -61 12 -92 l6 -55 72 12
c39 7 121 20 181 28 264 39 678 98 775 111 340 45 567 82 574 94 5 9 -26 151
-33 150 -3 -1 -22 -5 -41 -9z"/>
<path d="M4060 8485 c-74 -13 -245 -42 -380 -64 -135 -23 -283 -48 -330 -56
-47 -8 -180 -31 -297 -50 -117 -19 -231 -39 -255 -45 -24 -5 -61 -10 -83 -10
-65 -1 -67 -5 -51 -99 8 -46 17 -85 20 -88 2 -3 17 2 33 10 15 8 96 24 178 36
136 18 254 37 577 89 59 10 105 15 102 11 -9 -16 -157 -89 -179 -89 -13 0 -70
-24 -127 -54 -57 -30 -132 -66 -168 -81 -185 -79 -269 -118 -322 -152 -32 -21
-58 -41 -58 -44 0 -4 11 -35 24 -70 l24 -64 49 3 c49 2 214 40 408 92 183 50
792 198 923 224 101 21 130 31 162 56 38 30 39 32 27 63 -29 71 -90 72 -397 4
-334 -74 -338 -73 -115 37 104 52 225 107 270 122 81 28 189 98 183 118 -2 6
-12 37 -22 69 -23 67 -8 64 -196 32z"/>
<path d="M15847 8399 c-36 -29 -37 -33 -37 -94 0 -95 8 -107 89 -143 39 -18
80 -32 90 -32 11 0 55 -13 98 -29 43 -16 256 -88 473 -160 217 -72 475 -158
574 -191 l179 -60 34 26 c32 24 34 29 28 68 -4 22 -11 49 -16 58 -9 17 -85 49
-164 69 l-46 12 7 71 c5 59 22 107 50 145 2 2 23 -5 47 -14 25 -9 75 -17 113
-18 l68 -2 17 70 c10 39 18 77 18 85 1 24 -137 50 -296 56 -76 3 -153 10 -171
16 -18 5 -106 14 -195 18 -165 9 -320 22 -482 41 -49 6 -165 14 -257 19 -92 5
-171 11 -176 14 -5 3 -25 -9 -45 -25z m1041 -259 l82 -14 0 -42 c0 -32 -5 -45
-22 -56 -21 -14 -38 -10 -227 54 -113 38 -207 71 -210 74 -11 10 297 -3 377
-16z"/>
<path d="M15744 7908 c-46 -66 -51 -81 -64 -163 -22 -150 -39 -129 155 -197
94 -32 190 -65 215 -73 25 -7 275 -90 555 -184 373 -125 523 -171 558 -171 26
0 47 3 47 8 0 4 6 40 14 80 l14 72 -57 16 c-31 8 -108 33 -171 54 -63 22 -160
51 -215 66 -159 42 -205 62 -205 87 0 46 12 67 37 67 47 0 179 -32 278 -66
104 -37 324 -94 361 -94 17 0 23 10 32 51 24 102 14 116 -98 148 -36 10 -165
47 -288 82 l-223 63 -70 -12 c-104 -18 -110 -17 -147 33 -19 26 -41 45 -52 45
-11 0 -42 9 -69 20 -41 16 -406 109 -526 134 -29 6 -34 3 -81 -66z m214 -127
c20 -10 107 -35 192 -56 85 -21 165 -44 178 -52 36 -23 102 -84 102 -96 0 -6
-33 -8 -94 -4 -79 4 -111 12 -196 46 -56 23 -111 41 -121 41 -11 0 -42 12 -70
26 -36 18 -49 30 -45 40 3 9 6 29 6 45 0 34 0 34 48 10z"/>
<path d="M4065 7880 c-121 -31 -251 -66 -290 -78 -97 -29 -787 -202 -806 -202
-25 0 -139 -89 -150 -118 -19 -50 -5 -122 44 -228 26 -55 47 -106 47 -113 0
-11 38 -91 43 -91 2 0 97 32 211 70 115 39 214 70 220 70 6 0 35 11 65 25 l54
25 -7 53 c-4 28 -21 82 -38 118 l-30 67 -75 -25 -74 -25 3 -34 c2 -33 0 -36
-50 -59 -86 -40 -154 -57 -164 -43 -17 24 -48 87 -48 96 0 15 112 60 190 77
41 9 107 27 145 40 39 13 113 36 165 51 183 52 286 82 424 123 108 32 155 41
213 41 l73 0 -20 -40 c-18 -36 -26 -41 -92 -60 -40 -12 -145 -46 -233 -75
l-160 -54 -3 -59 c-2 -46 1 -64 16 -82 l19 -23 74 26 c41 15 137 44 214 66 77
22 196 59 265 83 l125 44 -2 65 c-1 35 -7 100 -14 144 -11 76 -14 82 -58 123
-25 24 -53 47 -61 51 -9 5 -100 -14 -235 -49z"/>
<path d="M11336 7617 c-24 -83 -23 -108 9 -162 73 -128 86 -158 114 -270 33
-130 60 -216 84 -261 l15 -29 13 45 c22 76 15 154 -25 278 -38 120 -42 146
-27 186 l10 25 64 -21 c63 -21 64 -21 90 -2 66 49 89 159 43 203 l-25 23 -15
-36 c-9 -20 -24 -53 -33 -73 l-17 -38 -13 69 c-7 38 -15 71 -17 73 -2 2 -20
-4 -40 -13 -33 -16 -36 -22 -36 -58 0 -68 -13 -76 -56 -36 -20 19 -56 61 -80
93 l-43 57 -15 -53z"/>
<path d="M12032 7607 c-12 -34 -33 -105 -45 -157 -19 -79 -36 -116 -99 -220
l-75 -125 5 -88 5 -89 43 43 c49 48 97 134 145 262 18 48 36 87 40 87 13 0 79
-125 79 -150 0 -22 54 -129 113 -224 l31 -49 13 39 c7 21 16 62 20 91 6 53 5
56 -50 136 -58 86 -103 192 -155 363 -48 158 -44 153 -70 81z"/>
<path d="M11030 7592 c0 -79 30 -174 79 -250 47 -72 74 -154 101 -305 11 -61
20 -112 20 -114 0 -2 11 -3 25 -3 l25 0 0 123 c-1 155 -19 261 -58 329 -16 29
-33 69 -37 88 -8 41 -72 128 -121 165 l-34 26 0 -59z"/>
<path d="M12418 7617 c-37 -22 -38 -23 -38 -86 0 -56 6 -76 44 -155 48 -98
118 -301 138 -404 l13 -63 29 30 29 31 -12 92 c-6 51 -25 144 -41 207 l-29
114 97 -7 c133 -9 157 0 177 67 23 76 20 132 -7 152 -22 15 -23 14 -30 -7 -3
-13 -6 -38 -7 -55 -1 -32 -2 -33 -45 -33 l-44 0 -8 56 -9 55 -73 -57 -74 -57
-26 20 c-19 14 -30 35 -37 71 l-10 50 -37 -21z"/>
<path d="M7648 7602 c-28 -10 -67 -36 -97 -65 -41 -41 -51 -58 -61 -107 -21
-100 -4 -159 78 -257 32 -41 37 -43 86 -43 29 0 82 11 121 26 114 41 109 40
101 18 -4 -10 -14 -53 -23 -94 -14 -67 -19 -78 -55 -107 -64 -53 -127 -44
-168 22 -20 33 -25 35 -76 35 l-54 0 0 -37 c1 -35 6 -42 70 -90 77 -59 106
-65 197 -38 55 16 143 87 168 134 7 15 22 74 33 131 11 58 21 110 23 115 10
35 -65 282 -94 311 -16 16 -153 64 -180 63 -12 0 -43 -8 -69 -17z m183 -119
c21 -52 14 -158 -12 -209 -30 -59 -46 -69 -95 -60 -27 6 -53 22 -86 55 -60 60
-62 89 -13 178 l36 63 80 0 c77 0 80 -1 90 -27z"/>
<path d="M8782 7605 c-42 -10 -65 -24 -103 -61 -47 -47 -49 -50 -49 -106 l0
-58 39 0 c38 0 39 1 61 61 27 70 41 79 129 79 44 0 65 -5 85 -21 24 -19 26
-26 26 -99 l0 -79 -52 -15 c-29 -8 -65 -18 -80 -21 -25 -6 -28 -12 -28 -46 0
-35 3 -39 26 -39 14 0 47 -9 73 -21 39 -16 54 -30 76 -70 l27 -50 -59 -62
c-32 -34 -60 -62 -63 -62 -3 0 -31 9 -63 20 -52 17 -63 27 -108 88 -47 64 -51
68 -64 51 -26 -34 -28 -79 -7 -127 28 -64 76 -96 159 -108 85 -13 146 -4 200
27 47 27 67 59 94 148 l18 59 -61 79 -62 80 30 23 c86 67 80 56 67 127 -21
127 -62 183 -148 203 -72 17 -94 17 -163 0z"/>
<path d="M7198 7550 l-68 -50 0 -62 1 -63 35 39 c20 23 38 36 42 30 5 -5 17
-37 27 -70 14 -50 17 -86 13 -195 -3 -74 -11 -158 -18 -186 -12 -48 -16 -53
-42 -53 -27 0 -28 -2 -28 -45 l0 -46 138 3 137 3 3 42 3 42 -48 3 -48 3 -5
307 -5 306 -27 21 c-14 12 -30 21 -35 21 -4 0 -38 -23 -75 -50z"/>
<path d="M8173 7556 c-72 -53 -71 -52 -89 -124 -24 -98 -29 -256 -10 -357 24
-126 21 -120 93 -175 l66 -50 81 0 c79 0 82 1 126 37 25 20 62 57 83 81 33 39
37 49 37 101 0 83 -33 172 -80 215 -32 29 -48 35 -102 41 -78 8 -133 -5 -183
-45 -21 -17 -40 -28 -43 -25 -3 2 5 44 18 92 18 70 30 96 59 126 33 35 39 37
96 37 57 0 63 -2 76 -27 15 -28 84 -83 104 -83 7 0 16 20 20 47 l7 48 -59 52
-58 53 -90 0 -91 0 -61 -44z m242 -369 c19 -33 25 -58 25 -101 0 -51 -4 -62
-37 -102 -35 -41 -40 -44 -87 -44 -44 0 -55 4 -88 37 -37 36 -38 39 -38 107 0
67 1 72 37 108 35 36 40 38 100 38 l62 0 26 -43z"/>
<path d="M15616 7518 c-44 -67 -63 -205 -37 -270 9 -24 16 -28 48 -28 23 0 91
-23 180 -60 78 -33 149 -60 159 -60 9 0 39 -13 66 -30 26 -16 58 -30 71 -30
12 0 47 -13 77 -29 30 -16 71 -32 90 -36 48 -10 252 -90 322 -126 31 -16 67
-29 79 -29 12 0 62 -19 113 -41 50 -23 119 -52 154 -65 l63 -24 29 32 c16 17
41 61 56 97 15 36 37 89 50 118 l22 52 -45 37 c-42 35 -47 36 -98 30 -85 -10
-86 -11 -79 -67 4 -27 3 -49 0 -49 -4 0 -89 27 -189 60 -100 32 -202 64 -226
70 l-44 12 7 61 c3 34 9 74 12 88 5 25 3 26 -70 42 -42 9 -83 17 -91 17 -7 0
-27 -24 -44 -54 l-31 -53 -82 29 c-46 16 -102 33 -125 38 -23 6 -65 23 -93 40
-28 16 -62 30 -76 30 -14 0 -43 9 -64 20 l-40 20 0 69 0 68 -37 16 c-21 9 -54
19 -75 23 -31 5 -39 2 -52 -18z"/>
<path d="M4410 7193 c-85 -36 -204 -82 -265 -103 -172 -60 -806 -318 -851
-346 -12 -7 -38 -16 -60 -20 -21 -4 -62 -22 -91 -41 -49 -31 -52 -35 -46 -66
3 -17 19 -56 35 -84 l29 -53 119 60 c66 33 127 60 136 60 9 0 58 20 108 44 50
24 102 47 116 51 14 4 46 18 72 31 26 13 51 24 56 24 5 0 28 -27 51 -60 23
-33 44 -60 47 -60 3 0 27 11 54 25 70 35 84 60 69 119 -6 26 -10 48 -8 50 2 2
67 35 144 74 123 62 301 132 334 132 6 0 21 -20 33 -45 12 -25 28 -45 36 -45
24 0 143 61 149 76 8 22 -66 207 -90 225 -21 14 -31 12 -177 -48z"/>
<path d="M15483 7183 c-3 -10 -14 -39 -24 -65 l-19 -48 113 -57 c61 -32 130
-63 152 -69 22 -6 85 -33 140 -60 55 -27 131 -62 168 -78 37 -15 67 -32 67
-36 0 -7 -284 39 -355 58 -22 6 -101 23 -175 37 -74 14 -142 28 -150 30 -8 2
-35 -13 -59 -34 l-44 -38 23 -41 c22 -40 42 -50 719 -389 383 -191 698 -349
701 -350 3 -1 26 37 52 86 l48 89 -23 15 c-40 26 -150 79 -216 104 -73 27
-465 223 -459 229 6 5 452 -80 695 -133 45 -9 85 -15 88 -11 3 3 21 44 40 91
l33 86 -131 51 c-73 28 -172 71 -222 96 -49 24 -98 44 -108 44 -10 0 -39 11
-65 24 -26 13 -102 44 -169 69 -67 25 -150 60 -184 78 -35 17 -86 39 -114 49
-27 9 -140 53 -250 98 -232 93 -262 102 -272 75z"/>
<path d="M4610 6836 c-52 -23 -108 -46 -125 -50 -16 -4 -86 -29 -155 -56 -69
-26 -145 -54 -170 -60 -24 -7 -66 -23 -93 -37 -27 -13 -103 -44 -170 -69 -154
-57 -307 -116 -422 -164 -49 -21 -106 -41 -125 -45 -62 -12 -67 -15 -86 -56
l-18 -41 27 -47 c22 -39 31 -46 55 -45 25 1 142 35 204 59 13 5 24 -8 52 -64
20 -39 36 -76 36 -83 0 -7 -20 -25 -44 -41 -24 -15 -65 -46 -91 -69 -53 -47
-55 -62 -15 -150 35 -79 41 -77 359 145 152 107 377 263 501 347 222 151 428
297 484 342 l28 24 -18 59 c-17 58 -83 145 -109 145 -5 0 -53 -20 -105 -44z
m-410 -370 c0 -6 -319 -222 -374 -254 -46 -26 -52 -22 -62 47 -6 39 -4 46 17
62 13 10 51 27 84 38 33 11 116 40 185 65 119 43 150 51 150 42z"/>
<path d="M15256 6722 c-12 -20 -36 -136 -29 -143 18 -18 338 -195 498 -276 94
-47 215 -111 270 -143 55 -31 187 -101 293 -155 106 -53 228 -118 271 -144
l79 -48 38 80 c28 57 35 81 26 84 -7 3 -63 35 -125 72 -61 38 -226 125 -366
195 -140 70 -293 150 -340 178 -73 43 -594 308 -606 308 -2 0 -6 -3 -9 -8z"/>
<path d="M15133 6472 l-42 -67 47 -48 c26 -27 89 -83 141 -125 201 -164 272
-225 268 -229 -9 -8 -262 75 -307 101 -25 14 -52 26 -61 26 -9 0 -45 13 -81
29 -100 45 -128 48 -159 14 -47 -50 -47 -69 3 -117 25 -23 80 -64 124 -91 43
-27 117 -76 163 -109 46 -34 292 -201 545 -372 l461 -311 52 81 c29 45 52 83
52 86 0 3 -109 77 -242 164 -133 88 -237 161 -231 163 12 4 150 -44 279 -97
124 -52 265 -100 265 -91 0 9 -102 107 -185 176 -86 73 -205 187 -205 197 0
13 70 -26 227 -123 256 -159 256 -159 302 -61 17 38 31 74 31 80 0 6 -24 24
-52 38 -70 35 -257 142 -370 210 -49 30 -126 73 -169 95 -44 21 -143 77 -222
122 -164 96 -555 314 -577 321 -10 4 -28 -16 -57 -62z"/>
<path d="M4765 6400 c-71 -42 -260 -154 -420 -248 -159 -94 -330 -195 -380
-225 -49 -30 -144 -84 -210 -122 -66 -37 -139 -83 -163 -102 l-42 -34 32 -46
c18 -25 47 -57 65 -70 l32 -25 63 45 c72 51 466 277 483 277 6 0 26 -15 43
-33 l33 -34 -291 -187 c-159 -103 -290 -190 -290 -194 0 -8 109 -152 116 -152
12 0 250 157 404 265 91 65 271 187 400 273 283 187 520 354 520 366 0 5 -11
29 -25 53 -22 36 -31 43 -57 43 -37 0 -100 -33 -233 -121 -235 -155 -343 -219
-371 -218 -20 0 -36 10 -52 29 l-23 29 58 39 c32 21 172 110 311 196 138 87
252 162 252 167 0 29 -88 111 -116 108 -5 0 -67 -36 -139 -79z"/>
<path d="M9370 6394 c-47 -8 -120 -28 -163 -44 -42 -16 -139 -46 -214 -66 -76
-20 -149 -41 -163 -46 -14 -6 -125 -13 -248 -17 l-223 -6 -33 -80 c-18 -44
-85 -183 -148 -310 -64 -126 -137 -279 -163 -340 -26 -60 -61 -136 -77 -169
-21 -42 -26 -61 -18 -66 16 -10 176 -35 414 -65 110 -14 201 -27 204 -29 13
-14 -17 -26 -66 -26 -31 0 -77 -5 -100 -10 -24 -6 -133 -24 -243 -40 -224 -33
-284 -46 -317 -67 -44 -27 -132 -192 -158 -296 l-7 -29 69 7 c38 4 132 18 209
31 77 13 291 46 475 73 416 63 775 118 1123 172 l269 42 66 -66 67 -66 106
-17 107 -18 38 29 c22 16 65 54 97 83 35 32 64 51 73 48 8 -3 105 -17 216 -31
112 -14 388 -50 613 -80 473 -63 750 -96 1025 -125 108 -11 218 -26 245 -35
28 -8 51 -15 53 -15 1 0 2 17 2 38 0 27 -18 68 -69 156 l-69 120 -63 18 c-35
10 -163 39 -284 64 -233 48 -371 81 -393 93 -8 4 55 11 140 14 241 9 478 43
478 67 0 17 -258 527 -323 640 -33 58 -82 151 -108 206 -44 92 -51 102 -80
108 -55 11 -168 7 -265 -10 -93 -16 -94 -16 -124 6 -28 20 -39 22 -92 16 -48
-6 -65 -4 -86 10 -15 10 -49 21 -77 25 -27 3 -129 27 -225 52 -359 94 -475 89
-669 -29 -112 -67 -142 -70 -192 -18 -72 76 -213 115 -416 113 -70 -1 -166 -7
-213 -15z m690 -920 l0 -124 -30 0 -30 0 0 146 0 145 30 -21 30 -21 0 -125z"/>
<path d="M5110 6041 c-36 -26 -238 -166 -450 -311 -212 -145 -474 -326 -582
-403 l-197 -139 31 -62 c44 -87 88 -153 142 -213 38 -42 59 -56 111 -73 l65
-22 86 63 c48 34 141 105 207 156 65 52 235 181 376 287 499 376 519 394 508
463 -3 19 -15 54 -26 77 -22 45 -173 219 -194 223 -7 2 -41 -19 -77 -46z m57
-243 c18 -7 32 -15 31 -19 -5 -12 -157 -136 -293 -238 -368 -276 -493 -368
-530 -389 -22 -13 -61 -44 -86 -69 -51 -49 -63 -50 -114 -9 l-29 23 24 29 c43
51 99 95 370 296 224 165 332 241 530 371 30 19 53 21 97 5z"/>
<path d="M14604 5718 c-20 -18 -66 -71 -101 -117 -56 -75 -63 -89 -63 -130 l0
-46 223 -221 222 -222 66 -16 c119 -28 119 -28 113 -83 l-6 -48 63 -51 c35
-29 118 -100 184 -159 66 -58 143 -124 172 -146 51 -40 53 -40 110 -33 56 7
60 9 144 93 47 47 107 117 134 155 l49 69 -34 26 c-19 14 -102 82 -183 151
-82 69 -185 153 -228 187 l-80 62 30 34 30 34 -70 69 -69 69 -35 -39 c-43 -49
-45 -48 -174 63 -91 78 -96 81 -135 75 -88 -12 -86 -10 -86 -59 0 -44 0 -44
113 -138 61 -52 120 -103 130 -114 17 -19 16 -20 -41 -37 l-59 -18 -131 106
c-149 121 -187 156 -226 209 l-29 37 79 74 79 74 -21 39 c-21 38 -84 83 -116
83 -10 0 -34 -15 -54 -32z m697 -685 c8 -9 52 -48 99 -86 102 -84 230 -207
230 -222 0 -5 -11 -23 -24 -39 l-23 -30 -53 39 c-111 82 -320 264 -320 279 0
11 60 76 71 76 3 0 13 -7 20 -17z"/>
<path d="M5485 5397 c-174 -154 -303 -266 -411 -357 -42 -36 -113 -99 -158
-141 -45 -41 -152 -137 -239 -213 -86 -76 -161 -145 -166 -154 -5 -10 -14 -43
-21 -74 -15 -74 1 -110 85 -194 69 -70 144 -104 228 -104 l52 0 528 528 529
529 -27 54 c-15 30 -29 56 -31 58 -14 16 -134 -90 -367 -323 -149 -150 -324
-315 -387 -368 -63 -52 -150 -132 -193 -177 -67 -70 -82 -81 -111 -81 -26 0
-41 8 -60 31 -14 17 -26 34 -26 38 0 9 83 87 155 146 33 27 141 128 240 225
99 97 212 202 250 232 39 31 134 121 211 200 167 168 174 184 116 242 -21 20
-40 36 -42 36 -3 -1 -72 -60 -155 -133z"/>
<path d="M14122 5172 c-34 -31 -62 -61 -62 -65 0 -4 26 -47 59 -95 71 -106
231 -371 231 -383 0 -10 -146 94 -255 181 -189 151 -193 154 -234 141 -28 -8
-42 -20 -54 -47 -17 -34 -17 -37 0 -59 57 -74 646 -782 798 -958 99 -115 189
-220 201 -233 l20 -25 57 60 c31 33 57 62 57 65 0 7 -219 280 -302 377 -26 31
-48 60 -48 63 0 13 62 -26 182 -116 184 -137 270 -198 280 -198 15 0 -28 71
-159 267 -68 101 -119 183 -115 183 4 0 93 -85 197 -190 104 -104 195 -190
201 -190 15 0 89 65 115 102 l22 30 -225 227 c-124 124 -259 267 -300 316 -67
79 -588 606 -599 605 -2 -1 -32 -26 -67 -58z"/>
<path d="M5883 5098 c-45 -51 -199 -209 -343 -351 -143 -143 -302 -309 -354
-370 -52 -62 -149 -166 -215 -232 -67 -66 -121 -123 -121 -126 0 -4 27 -30 60
-59 l60 -52 60 52 c34 29 114 116 179 194 109 131 349 371 360 361 7 -8 -50
-135 -90 -202 -21 -34 -85 -151 -142 -260 -57 -109 -121 -225 -141 -258 l-37
-60 58 -52 c32 -29 61 -53 64 -53 4 0 31 21 60 48 50 45 136 145 418 487 69
82 197 235 285 339 89 103 178 211 199 240 33 44 87 137 87 149 0 6 -89 43
-121 51 -23 5 -30 0 -52 -32 -14 -21 -60 -76 -104 -123 -43 -46 -100 -111
-127 -144 -64 -77 -138 -155 -149 -155 -11 0 53 118 201 375 l122 210 -57 57
c-32 32 -62 58 -68 58 -6 0 -47 -42 -92 -92z"/>
<path d="M6294 4733 c-38 -48 -149 -189 -247 -313 -315 -398 -422 -534 -472
-600 -64 -84 -177 -221 -198 -239 -15 -12 -12 -17 31 -57 68 -62 95 -60 161
12 29 31 79 95 113 143 34 47 78 106 99 131 39 46 270 346 463 600 60 80 136
175 168 212 52 59 58 71 58 111 0 44 -1 45 -47 63 -27 11 -51 20 -54 22 -4 2
-37 -37 -75 -85z"/>
<path d="M13662 4777 l-32 -33 32 -44 c18 -25 53 -70 78 -100 26 -30 109 -138
185 -240 76 -102 233 -308 348 -458 l209 -274 -33 -34 c-18 -19 -38 -34 -45
-34 -26 0 -164 176 -434 550 -140 195 -292 397 -369 492 -40 49 -51 57 -81 57
-29 1 -43 -7 -72 -36 l-35 -38 151 -216 c83 -119 219 -315 301 -435 210 -307
412 -573 442 -585 33 -12 122 4 182 33 52 25 148 118 175 170 19 35 19 38 2
96 -16 50 -42 88 -170 245 -83 102 -281 350 -441 551 -283 356 -291 365 -326
366 -27 0 -42 -8 -67 -33z"/>
<path d="M6541 4687 c-71 -112 -146 -242 -287 -495 -91 -163 -185 -328 -208
-367 -67 -109 -243 -429 -270 -489 l-24 -54 26 -24 c59 -53 109 -86 137 -89
27 -4 36 5 109 101 82 107 291 371 588 740 90 113 202 254 247 314 l83 109
-29 23 c-41 34 -82 52 -104 47 -11 -3 -63 -60 -116 -127 -54 -66 -136 -166
-183 -222 -47 -55 -118 -142 -159 -192 -41 -51 -76 -90 -79 -87 -7 7 94 202
205 396 55 96 119 210 141 255 l41 81 -52 51 c-52 52 -52 52 -66 29z"/>
<path d="M13284 4520 c-43 -26 -97 -64 -118 -82 l-40 -35 221 -354 c121 -195
270 -435 330 -534 61 -99 153 -246 204 -326 l94 -147 78 40 c104 54 151 90
184 139 l26 40 -45 46 -46 46 -63 -16 c-63 -16 -64 -16 -87 6 -29 26 -155 216
-206 308 l-36 66 54 51 53 50 -68 68 -69 68 -40 -39 c-24 -24 -43 -35 -49 -30
-40 44 -281 431 -281 451 0 7 18 28 40 47 22 19 40 37 40 41 0 4 -22 38 -49
76 l-48 69 -79 -49z"/>
<path d="M6977 4356 c-12 -13 -36 -48 -53 -77 -18 -30 -194 -325 -393 -655
-199 -331 -361 -605 -361 -608 0 -11 164 -114 216 -137 102 -44 89 -48 134 40
l39 79 -64 42 c-36 23 -65 47 -65 52 0 16 162 292 198 337 l35 43 66 -6 66 -6
38 46 c52 65 50 94 -8 136 -55 40 -54 47 17 173 40 71 189 307 203 323 2 2 26
-7 54 -19 29 -12 53 -20 55 -18 13 14 67 153 63 162 -6 17 -177 117 -199 117
-11 0 -29 -11 -41 -24z"/>
<path d="M12881 4276 l-44 -45 36 -50 c20 -28 64 -105 98 -172 33 -68 80 -154
103 -193 23 -39 87 -152 141 -251 54 -99 124 -225 155 -280 32 -55 76 -136
100 -180 32 -60 136 -243 156 -273 1 -2 67 34 147 80 l145 83 -36 50 c-63 89
-58 87 -127 69 l-60 -16 -26 32 c-15 17 -39 55 -54 83 -49 90 -617 1081 -627
1095 -21 26 -63 13 -107 -32z"/>
<path d="M7254 4143 c-27 -43 -98 -175 -158 -293 -60 -118 -132 -255 -161
-305 -29 -49 -94 -173 -145 -274 -50 -101 -120 -231 -155 -290 -42 -71 -66
-121 -70 -152 l-7 -47 47 -32 c42 -29 49 -31 76 -19 43 17 66 52 157 235 68
135 146 277 191 344 8 12 15 10 41 -15 28 -26 30 -34 25 -70 -8 -49 -48 -150
-125 -315 -51 -110 -100 -237 -100 -262 0 -13 122 -70 130 -61 22 23 212 403
217 433 3 19 18 58 34 86 25 45 29 62 29 133 l0 82 48 47 c34 34 65 83 110
172 34 69 62 132 62 140 0 8 24 65 55 125 67 131 87 211 63 247 -15 22 -280
168 -306 168 -5 0 -32 -35 -58 -77z m127 -323 c-11 -25 -39 -88 -61 -140 -23
-52 -55 -119 -72 -147 -29 -53 -30 -53 -80 -53 l-50 0 6 34 c4 19 45 114 92
211 63 130 98 191 132 228 l47 50 3 -69 c2 -52 -2 -80 -17 -114z"/>
<path d="M12690 4170 c-30 -9 -90 -38 -132 -64 -73 -44 -78 -50 -94 -100 l-17
-54 42 -75 c22 -42 41 -86 41 -97 0 -12 29 -79 65 -149 36 -71 65 -136 65
-145 0 -9 27 -70 60 -136 33 -66 60 -126 60 -134 0 -8 27 -69 60 -135 33 -66
63 -135 66 -153 8 -40 71 -161 128 -242 l41 -59 85 6 c95 5 176 31 239 77 58
42 75 80 68 153 -5 50 -27 102 -158 365 -83 169 -174 343 -200 387 -26 45 -90
166 -141 270 -91 187 -123 232 -193 281 -29 20 -31 20 -85 4z m126 -382 c43
-89 107 -212 142 -273 109 -190 279 -537 291 -593 15 -74 16 -72 -33 -72 l-44
0 -71 136 c-39 75 -71 145 -71 155 0 11 -85 190 -190 399 -104 209 -190 384
-190 389 0 5 15 12 33 14 17 2 37 5 43 5 5 1 46 -71 90 -160z"/>
<path d="M7705 3947 c-37 -38 -60 -75 -84 -132 -18 -44 -52 -128 -77 -186 -24
-58 -55 -150 -70 -203 l-25 -98 21 -71 c24 -78 65 -164 103 -215 22 -29 23
-37 15 -85 -5 -28 -30 -108 -56 -175 -43 -117 -48 -126 -96 -162 -28 -21 -54
-36 -59 -33 -19 11 1 169 28 235 15 35 34 87 43 117 l16 54 -27 23 c-39 34
-100 50 -132 36 -20 -9 -25 -19 -25 -49 0 -27 -18 -74 -60 -156 -56 -110 -60
-122 -60 -186 0 -38 5 -93 12 -122 12 -49 15 -53 64 -76 62 -28 171 -53 235
-53 42 0 48 3 92 54 53 62 126 232 172 401 23 85 26 111 20 173 -6 66 -12 80
-56 145 -45 67 -49 77 -49 132 0 34 7 88 15 120 17 67 159 365 174 365 5 0 15
-16 21 -36 13 -39 7 -92 -17 -137 -8 -16 -30 -75 -48 -131 -18 -55 -35 -108
-39 -117 -5 -12 5 -21 43 -38 27 -11 59 -21 70 -21 26 0 50 46 82 155 12 44
36 101 51 128 17 29 36 86 48 149 l21 102 -28 28 c-34 34 -217 118 -257 118
-23 0 -42 -13 -81 -53z"/>
<path d="M12105 3916 c-56 -29 -101 -60 -103 -69 -2 -10 10 -47 27 -85 17 -37
66 -170 110 -297 119 -347 205 -589 249 -702 22 -57 43 -117 47 -134 4 -17 20
-63 36 -102 17 -40 29 -88 29 -113 l0 -44 53 0 c52 0 123 13 135 24 10 11 -30
158 -95 346 -62 177 -107 339 -98 348 2 2 31 -15 63 -39 55 -41 61 -49 82
-114 13 -38 40 -110 62 -158 21 -49 48 -116 59 -150 24 -70 66 -157 77 -157 4
0 40 10 80 21 52 16 72 27 72 39 0 34 -32 121 -89 241 -32 68 -76 171 -97 228
-38 102 -39 104 -112 164 l-73 61 8 55 c12 89 9 110 -36 216 -23 55 -53 129
-66 165 -57 160 -68 185 -108 245 l-42 65 -85 0 c-84 0 -87 -1 -185 -54z m196
-177 c32 -22 51 -61 75 -149 10 -36 28 -81 40 -100 17 -26 68 -219 60 -226 0
-1 -22 -4 -47 -8 l-47 -7 -12 53 c-7 29 -23 71 -36 94 -13 22 -24 48 -24 57 0
8 -20 70 -45 137 -25 67 -48 135 -52 152 -6 30 -6 30 28 23 19 -4 46 -16 60
-26z"/>
<path d="M8164 3846 c-3 -7 -24 -69 -48 -137 -24 -68 -59 -164 -79 -214 -50
-126 -278 -819 -331 -1003 -51 -178 -51 -179 47 -211 53 -17 58 -17 66 -2 19
35 151 442 151 463 0 13 16 66 35 118 19 52 53 158 76 235 42 146 84 278 155
480 23 66 49 144 57 172 18 60 22 56 -72 93 -42 16 -53 17 -57 6z"/>
<path d="M11795 3813 c-116 -36 -161 -49 -209 -58 -28 -6 -28 -7 -24 -59 3
-31 14 -68 27 -89 21 -34 26 -37 72 -37 47 0 49 -1 65 -37 8 -21 27 -78 40
-128 14 -49 34 -117 46 -150 11 -33 26 -89 33 -125 8 -36 21 -82 30 -103 9
-21 53 -169 99 -330 46 -161 101 -335 122 -388 l37 -96 61 24 c34 13 71 29 84
33 12 5 22 14 22 21 0 6 -29 97 -64 202 -35 106 -92 283 -125 395 -34 111 -72
233 -86 270 -13 37 -40 126 -60 197 -19 72 -47 163 -62 203 -14 40 -24 74 -22
76 2 2 30 18 61 35 l57 32 -35 72 c-19 40 -40 73 -47 74 -6 0 -61 -15 -122
-34z"/>
<path d="M8336 3718 c-10 -40 -21 -78 -23 -84 -2 -5 19 -25 48 -44 51 -33 51
-33 46 -74 -3 -23 -24 -105 -46 -181 -22 -77 -56 -201 -76 -275 -20 -74 -74
-270 -120 -435 -79 -285 -111 -414 -103 -419 62 -46 71 -48 119 -43 63 8 69
12 69 48 0 16 66 289 146 607 81 317 152 602 159 632 l11 55 52 3 c45 3 53 7
71 35 55 89 30 170 -57 182 -26 4 -95 20 -154 36 -59 16 -111 29 -116 29 -4 0
-16 -33 -26 -72z"/>
<path d="M11390 3706 c-52 -13 -112 -31 -134 -42 l-38 -19 5 -65 c7 -84 92
-517 203 -1035 24 -116 53 -259 64 -318 22 -120 42 -161 74 -153 11 3 86 20
166 37 80 18 146 33 148 34 4 4 -35 155 -42 162 -3 3 -34 8 -70 10 -46 4 -70
11 -82 24 -22 25 -84 267 -91 360 l-6 76 67 28 c51 22 65 32 61 44 -4 9 -18
46 -32 84 -14 37 -28 67 -32 67 -3 0 -29 -9 -58 -20 -29 -11 -54 -16 -56 -12
-15 25 -91 355 -120 526 -1 5 25 21 58 35 l61 26 -17 55 c-10 30 -18 70 -18
88 -1 17 -4 31 -8 31 -5 -1 -51 -11 -103 -23z"/>
<path d="M8796 3658 c-17 -83 -18 -191 -3 -309 9 -68 18 -212 21 -319 2 -107
9 -218 16 -247 10 -45 8 -65 -14 -165 -13 -62 -28 -140 -31 -173 -4 -33 -16
-96 -26 -140 -10 -44 -25 -119 -32 -167 l-14 -86 91 -24 91 -25 26 171 c74
476 79 495 228 841 29 66 68 163 88 215 19 52 47 120 60 150 21 45 73 186 73
196 0 7 -112 25 -127 20 -10 -3 -24 -16 -32 -28 -46 -73 -81 -143 -81 -162 0
-12 -22 -65 -50 -118 -27 -53 -50 -109 -51 -125 0 -19 -10 -36 -30 -51 l-29
-24 0 243 c0 238 0 243 -24 284 -20 34 -33 44 -79 58 -29 9 -56 17 -59 17 -3
0 -8 -15 -12 -32z"/>
<path d="M10842 3614 c-55 -14 -107 -38 -116 -52 -3 -5 -1 -40 5 -78 5 -38 16
-130 24 -204 8 -74 22 -187 30 -250 39 -309 77 -641 91 -790 8 -91 20 -187 27
-215 l14 -50 50 3 c28 2 64 7 80 11 27 7 28 10 31 77 2 40 -5 115 -17 179 -11
61 -25 154 -31 208 -6 55 -15 107 -20 117 -32 60 8 110 112 140 121 36 122 38
126 177 4 107 0 137 -37 318 -23 110 -45 234 -50 275 -9 69 -13 78 -50 112
l-40 38 -88 -1 c-48 0 -112 -7 -141 -15z m149 -212 c23 -9 28 -21 47 -114 12
-56 24 -147 27 -201 3 -53 8 -116 11 -140 6 -41 5 -43 -31 -60 -21 -10 -39
-16 -42 -13 -10 9 -52 268 -61 372 -6 68 -16 124 -27 144 l-17 33 33 -6 c19
-3 46 -10 60 -15z"/>
<path d="M10200 3552 l-65 -17 -3 -470 c-2 -310 1 -492 9 -535 6 -36 13 -190
16 -342 l6 -278 88 0 89 0 0 208 c0 114 -5 236 -11 272 -14 87 -14 129 1 189
l12 51 65 0 66 0 -8 73 c-3 39 -11 78 -17 84 -10 12 -47 25 -110 38 l-28 5 0
260 0 260 49 0 c46 0 50 2 60 31 6 18 11 57 11 89 0 80 -20 100 -103 99 -34 0
-91 -8 -127 -17z"/>
<path d="M9835 3551 c-11 -5 -46 -10 -77 -10 -44 -1 -59 -5 -67 -18 -27 -53
-64 -409 -91 -878 -5 -93 -17 -228 -26 -299 -17 -131 -15 -210 7 -312 14 -63
46 -85 139 -96 36 -4 88 -11 116 -14 63 -8 135 21 185 72 l34 35 6 272 c3 162
10 290 18 317 8 33 11 158 9 453 l-3 409 -58 36 c-46 28 -70 36 -115 39 -31 1
-66 -1 -77 -6z m70 -458 c9 -295 1 -725 -14 -828 -22 -147 -16 -135 -66 -135
l-45 0 0 263 c0 173 5 299 15 372 8 61 15 142 15 180 0 39 7 129 15 200 24
206 23 205 50 205 l23 0 7 -257z"/>
</g>
</svg>
